<?xml version="1.0" encoding="utf-8"?>
<!-- Generator: Adobe Illustrator 16.0.0, SVG Export Plug-In . SVG Version: 6.00 Build 0)  -->
<!DOCTYPE svg PUBLIC "-//W3C//DTD SVG 1.1//EN" "http://www.w3.org/Graphics/SVG/1.1/DTD/svg11.dtd">
<svg version="1.1" id="Calque_1" xmlns="http://www.w3.org/2000/svg" xmlns:xlink="http://www.w3.org/1999/xlink" x="0px" y="0px"
	 width="174px" height="174px" viewBox="0 0 174 174" enable-background="new 0 0 174 174" xml:space="preserve">
<g id="Icons">
	<g>
		<g>
			<g>
				<line fill="none" stroke="#282D33" stroke-width="4" x1="138.465" y1="55.785" x2="138.465" y2="57.785"/>
				
					<line fill="none" stroke="#282D33" stroke-width="4" stroke-dasharray="3.8375,3.8375" x1="138.465" y1="61.623" x2="138.465" y2="128.777"/>
				<polyline fill="none" stroke="#282D33" stroke-width="4" points="138.465,130.697 138.465,132.697 136.465,132.697 				"/>
				
					<line fill="none" stroke="#282D33" stroke-width="4" stroke-dasharray="4.1087,4.1087" x1="132.357" y1="132.697" x2="44.02" y2="132.697"/>
				<polyline fill="none" stroke="#282D33" stroke-width="4" points="41.965,132.697 39.965,132.697 39.965,130.697 				"/>
				
					<line fill="none" stroke="#282D33" stroke-width="4" stroke-dasharray="3.8375,3.8375" x1="39.965" y1="126.859" x2="39.965" y2="59.704"/>
				<line fill="none" stroke="#282D33" stroke-width="4" x1="39.965" y1="57.785" x2="39.965" y2="55.785"/>
			</g>
		</g>
		<g>
			<rect x="39.965" y="44.285" fill="none" stroke="#282D33" stroke-width="4" width="98.5" height="11.5"/>
			<line fill="none" stroke="#282D33" stroke-width="4" x1="44.465" y1="49.952" x2="48.203" y2="49.952"/>
			<line fill="none" stroke="#282D33" stroke-width="4" x1="50.938" y1="49.952" x2="54.678" y2="49.952"/>
			<line fill="none" stroke="#282D33" stroke-width="4" x1="57.408" y1="49.952" x2="61.148" y2="49.952"/>
		</g>
		<g>
			<polyline fill="none" stroke="#282D33" stroke-width="4" points="78.734,102.962 72.578,98.083 66.42,93.201 72.578,88.318 
				78.734,83.437 			"/>
			<polyline fill="none" stroke="#282D33" stroke-width="4" points="99.695,102.962 105.852,98.083 112.01,93.201 105.852,88.318 
				99.695,83.439 			"/>
			<line fill="none" stroke="#282D33" stroke-width="4" x1="94.051" y1="77.956" x2="85.172" y2="108.447"/>
		</g>
	</g>
</g>
</svg>
