<?xml version="1.0" encoding="utf-8"?>
<!-- Generator: Adobe Illustrator 16.0.0, SVG Export Plug-In . SVG Version: 6.00 Build 0)  -->
<!DOCTYPE svg PUBLIC "-//W3C//DTD SVG 1.1//EN" "http://www.w3.org/Graphics/SVG/1.1/DTD/svg11.dtd">
<svg version="1.1" id="Calque_1" xmlns="http://www.w3.org/2000/svg" xmlns:xlink="http://www.w3.org/1999/xlink" x="0px" y="0px"
	 width="174px" height="174px" viewBox="0 0 174 174" enable-background="new 0 0 174 174" xml:space="preserve">
<g id="Icons">
	<g>
		<rect x="40.622" y="51.491" fill="none" stroke="#2bf5d3" stroke-width="2" width="98.5" height="78.911"/>
		<rect x="40.622" y="39.991" fill="none" stroke="#2bf5d3" stroke-width="2" width="98.5" height="11.5"/>
		<line fill="none" stroke="#2bf5d3" stroke-width="2" x1="45.122" y1="45.658" x2="48.86" y2="45.658"/>
		<line fill="none" stroke="#2bf5d3" stroke-width="2" x1="51.595" y1="45.658" x2="55.334" y2="45.658"/>
		<line fill="none" stroke="#2bf5d3" stroke-width="2" x1="58.065" y1="45.658" x2="61.806" y2="45.658"/>
		<g>
			<g>
				<line fill="none" stroke="#2bf5d3" stroke-width="2" x1="58.846" y1="59.757" x2="68.007" y2="59.757"/>
				<line fill="none" stroke="#2bf5d3" stroke-width="2" x1="79.946" y1="59.757" x2="98.688" y2="59.757"/>
				<line fill="none" stroke="#2bf5d3" stroke-width="2" x1="70.646" y1="59.757" x2="74.948" y2="59.757"/>
				<line fill="none" stroke="#2bf5d3" stroke-width="2" x1="61.899" y1="77.437" x2="72.45" y2="77.437"/>
				<line fill="none" stroke="#2bf5d3" stroke-width="2" x1="84.388" y1="77.437" x2="98.688" y2="77.437"/>
				<line fill="none" stroke="#2bf5d3" stroke-width="2" x1="74.978" y1="77.437" x2="81.392" y2="77.437"/>
				<line fill="none" stroke="#2bf5d3" stroke-width="2" x1="99.243" y1="95.116" x2="127.131" y2="95.116"/>
				<line fill="none" stroke="#2bf5d3" stroke-width="2" x1="74.978" y1="95.116" x2="95.771" y2="95.116"/>
				<line fill="none" stroke="#2bf5d3" stroke-width="2" x1="113.298" y1="77.437" x2="129.646" y2="77.437"/>
				<line fill="none" stroke="#2bf5d3" stroke-width="2" x1="102.714" y1="77.437" x2="110.35" y2="77.437"/>
				<line fill="none" stroke="#2bf5d3" stroke-width="2" x1="66.896" y1="86.276" x2="72.45" y2="86.276"/>
				<line fill="none" stroke="#2bf5d3" stroke-width="2" x1="74.978" y1="86.276" x2="96.184" y2="86.276"/>
				<line fill="none" stroke="#2bf5d3" stroke-width="2" x1="111.876" y1="59.757" x2="130.618" y2="59.757"/>
				<line fill="none" stroke="#2bf5d3" stroke-width="2" x1="102.575" y1="59.757" x2="106.88" y2="59.757"/>
				<line fill="none" stroke="#2bf5d3" stroke-width="2" x1="58.846" y1="68.598" x2="95.771" y2="68.598"/>
				<line fill="none" stroke="#2bf5d3" stroke-width="2" x1="58.846" y1="104.104" x2="109.654" y2="104.104"/>
				<line fill="none" stroke="#2bf5d3" stroke-width="2" x1="58.846" y1="112.941" x2="117.693" y2="112.941"/>
				<line fill="none" stroke="#2bf5d3" stroke-width="2" x1="58.846" y1="121.782" x2="84.388" y2="121.782"/>
				<line fill="none" stroke="#2bf5d3" stroke-width="2" x1="48.063" y1="59.757" x2="51.864" y2="59.757"/>
				<line fill="none" stroke="#2bf5d3" stroke-width="2" x1="48.063" y1="68.598" x2="51.864" y2="68.598"/>
				<line fill="none" stroke="#2bf5d3" stroke-width="2" x1="48.063" y1="77.437" x2="51.864" y2="77.437"/>
				<line fill="none" stroke="#2bf5d3" stroke-width="2" x1="48.063" y1="86.276" x2="51.864" y2="86.276"/>
				<line fill="none" stroke="#2bf5d3" stroke-width="2" x1="48.063" y1="95.116" x2="51.864" y2="95.116"/>
				<line fill="none" stroke="#2bf5d3" stroke-width="2" x1="48.063" y1="103.955" x2="51.864" y2="103.955"/>
				<line fill="none" stroke="#2bf5d3" stroke-width="2" x1="48.063" y1="112.796" x2="51.864" y2="112.796"/>
				<line fill="none" stroke="#2bf5d3" stroke-width="2" x1="48.063" y1="121.637" x2="51.864" y2="121.637"/>
			</g>
		</g>
	</g>
</g>
</svg>
