<?xml version="1.0" encoding="utf-8"?>
<!-- Generator: Adobe Illustrator 16.0.0, SVG Export Plug-In . SVG Version: 6.00 Build 0)  -->
<!DOCTYPE svg PUBLIC "-//W3C//DTD SVG 1.1//EN" "http://www.w3.org/Graphics/SVG/1.1/DTD/svg11.dtd">
<svg version="1.1" id="Calque_1" xmlns="http://www.w3.org/2000/svg" xmlns:xlink="http://www.w3.org/1999/xlink" x="0px" y="0px"
	 width="174px" height="174px" viewBox="0 0 174 174" enable-background="new 0 0 174 174" xml:space="preserve">
<g id="Icons">
	<g>
		<g>
			<path fill="none" stroke="#2bf5d3" stroke-width="2" d="M68.348,71.121c0,0.331,0.016,0.658,0.025,0.986
				c5.176-3.352,11.342-5.305,17.967-5.305c6.627,0,12.793,1.953,17.969,5.306c0.01-0.329,0.025-0.656,0.025-0.987
				c0-12.838-7.313-23.961-17.994-29.452C75.66,47.16,68.348,58.283,68.348,71.121z"/>
			<path fill="none" stroke="#2bf5d3" stroke-width="2" d="M86.34,100.572c-10.404-5.351-17.602-16.047-17.967-28.465
				C59.525,77.839,53.59,87.673,53.26,98.919c5.176,3.354,11.342,5.308,17.967,5.308C76.674,104.227,81.809,102.902,86.34,100.572z"
				/>
			<path fill="none" stroke="#2bf5d3" stroke-width="2" d="M104.309,72.108c-0.365,12.417-7.563,23.113-17.969,28.464
				c4.533,2.33,9.668,3.654,15.115,3.654c6.625,0,12.791-1.954,17.967-5.307C119.092,87.673,113.156,77.839,104.309,72.108z"/>
			<path fill="none" stroke="#2bf5d3" stroke-width="2" d="M68.373,72.107c0.365,12.418,7.563,23.114,17.967,28.465
				c10.406-5.351,17.604-16.047,17.969-28.464c-5.176-3.353-11.342-5.306-17.969-5.306C79.715,66.803,73.549,68.756,68.373,72.107z"
				/>
			<line fill="none" stroke="#2bf5d3" stroke-width="2" stroke-dasharray="2" x1="76.488" y1="79.899" x2="97.488" y2="79.899"/>
		</g>
		<g>
			<circle fill="none" stroke="#2bf5d3" stroke-width="2" cx="71.228" cy="71.121" r="33.106"/>
			<circle fill="none" stroke="#2bf5d3" stroke-width="2" cx="101.454" cy="71.121" r="33.106"/>
		</g>
		<circle fill="none" stroke="#2bf5d3" stroke-width="2" cx="86.341" cy="99.908" r="33.106"/>
	</g>
</g>
</svg>
