<?xml version="1.0" encoding="utf-8"?>
<!-- Generator: Adobe Illustrator 16.0.0, SVG Export Plug-In . SVG Version: 6.00 Build 0)  -->
<!DOCTYPE svg PUBLIC "-//W3C//DTD SVG 1.1//EN" "http://www.w3.org/Graphics/SVG/1.1/DTD/svg11.dtd">
<svg version="1.1" id="Calque_1" xmlns="http://www.w3.org/2000/svg" xmlns:xlink="http://www.w3.org/1999/xlink" x="0px" y="0px"
	 width="174px" height="174px" viewBox="0 0 174 174" enable-background="new 0 0 174 174" xml:space="preserve">
<g id="Icons">
	<g>
		<circle fill="none" stroke="#282D33" stroke-width="4" cx="87.602" cy="87.014" r="33.339"/>
		<path fill="none" stroke="#282D33" stroke-width="4" d="M85.38,66.14c-2.797,0.298-5.401,1.143-7.732,2.399
			c2.213,1.267,3.811,3.537,4.102,6.267c0.482,4.521-2.794,8.574-7.314,9.055c-2.73,0.292-5.283-0.793-6.989-2.688
			c-0.738,2.542-1.015,5.267-0.718,8.063c1.228,11.527,11.567,19.877,23.096,18.651c11.526-1.228,19.877-11.567,18.649-23.095
			C107.248,73.264,96.907,64.913,85.38,66.14z"/>
		<path fill="none" stroke="#282D33" stroke-width="4" d="M87.604,65.085c-20.506,0-38.493,8.758-48.667,21.929
			c10.174,13.17,28.16,21.928,48.667,21.928c20.506,0,38.492-8.758,48.666-21.928C126.096,73.843,108.107,65.085,87.604,65.085z"/>
	</g>
</g>
</svg>
