<?xml version="1.0" encoding="utf-8"?>
<!-- Generator: Adobe Illustrator 16.0.0, SVG Export Plug-In . SVG Version: 6.00 Build 0)  -->
<!DOCTYPE svg PUBLIC "-//W3C//DTD SVG 1.1//EN" "http://www.w3.org/Graphics/SVG/1.1/DTD/svg11.dtd">
<svg version="1.1" id="Calque_1" xmlns="http://www.w3.org/2000/svg" xmlns:xlink="http://www.w3.org/1999/xlink" x="0px" y="0px"
	 width="174px" height="174px" viewBox="0 0 174 174" enable-background="new 0 0 174 174" xml:space="preserve">
<g id="Icons">
	<g>
		<g>
			<g>
				<path fill="none" stroke="#282D33" stroke-width="4" d="M52.075,94.68c0.649,0.901,1.47,1.694,2.445,2.323
					c-0.03-0.636,0.094-1.291,0.402-1.905l1.354-2.703c0.951-1.903,3.266-2.672,5.168-1.718c1.896,0.951,2.666,3.263,1.714,5.16
					l-1.354,2.705c-0.315,0.635-0.792,1.14-1.347,1.502l3.039,1.519c-0.047-0.658,0.076-1.343,0.393-1.974l3.203-6.396
					c0.951-1.901,3.264-2.67,5.162-1.717c1.9,0.947,2.668,3.262,1.721,5.16l-3.203,6.393c-0.316,0.638-0.787,1.145-1.343,1.504
					l2.694,1.347c-0.048-0.66,0.076-1.34,0.395-1.973l3.951-7.899c0.949-1.896,3.264-2.669,5.164-1.719
					c1.898,0.951,2.668,3.266,1.721,5.167l-3.955,7.894c-0.316,0.635-0.785,1.141-1.345,1.504l2.694,1.347
					c-0.048-0.666,0.076-1.341,0.393-1.979l1.354-2.703c0.949-1.898,3.266-2.67,5.165-1.719c1.904,0.951,2.675,3.262,1.727,5.162
					l-1.357,2.707c-0.307,0.613-0.758,1.104-1.283,1.461c0.201,0.074,0.406,0.146,0.613,0.211l5.098,2.545
					c1.896,0.955,4.207,0.188,5.161-1.711c0.685-1.369,0.476-2.953-0.403-4.088c0.221-0.293,0.422-0.607,0.611-0.934l3.266,1.632
					c1.901,0.948,4.215,0.179,5.162-1.716c0.947-1.904,0.182-4.217-1.721-5.166l-3.236-1.623l0.336-0.666l7.609,3.812
					c1.898,0.948,4.215,0.179,5.162-1.72c0.953-1.9,0.187-4.215-1.717-5.165l-7.646-3.825c0.099-0.234,0.179-0.471,0.254-0.707
					l11.187,5.6c1.895,0.953,4.211,0.181,5.162-1.721c0.948-1.896,0.18-4.212-1.72-5.162l-19.431-9.727
					c-0.987-0.037-1.995-0.164-3.014-0.387c-3.91-0.863-7.111-2.982-9.033-5.639l-7.587,0.84l-0.273,1.436
					c-0.738,3.611-4.264,5.943-7.877,5.209l-2.18-0.445c-0.09-0.021-0.181-0.049-0.27-0.071l2.689-13.101l9.584-1.977l4.881-0.938
					l4.66,1.032l-1.418-4.482l-0.109-0.014l-9.633-0.963l-4.947-0.423L60.11,68.353"/>
				<g>
					<path fill="none" stroke="#282D33" stroke-width="4" d="M116.656,67.772l-11.943,3.975l-17.412-3.846l-14.247,2.914
						l-0.106,0.023l-2.689,13.101c0.089,0.022,0.18,0.051,0.27,0.071l2.18,0.445c3.613,0.734,7.139-1.598,7.877-5.209l0.273-1.436
						l7.506-0.783c0,0,2.313,2.471,3.936,3.482c0.008,0.01,0.021,0.016,0.033,0.022c0.176,0.108,0.35,0.216,0.531,0.317
						c0.027,0.016,0.059,0.029,0.085,0.045c0.166,0.096,0.335,0.188,0.508,0.273c0.043,0.023,0.09,0.043,0.133,0.068
						c0.156,0.074,0.318,0.156,0.479,0.23c0.064,0.029,0.13,0.055,0.191,0.084c0.15,0.068,0.299,0.133,0.449,0.195
						c0.084,0.033,0.168,0.064,0.254,0.098c0.137,0.051,0.268,0.104,0.406,0.156c0.107,0.039,0.221,0.073,0.328,0.109
						c0.119,0.043,0.234,0.084,0.352,0.119c0.145,0.045,0.287,0.084,0.43,0.126c0.092,0.024,0.183,0.054,0.275,0.081
						c0.24,0.061,0.48,0.119,0.723,0.174c0.25,0.057,0.498,0.104,0.75,0.146c0.031,0.006,0.063,0.012,0.096,0.017
						c0.221,0.036,0.439,0.071,0.66,0.1c0.021,0.003,0.035,0.003,0.056,0.007c0.233,0.029,0.474,0.055,0.707,0.076h0.006
						c0.248,0.016,0.498,0.033,0.738,0.041h0.001l19.271,9.646l5.192-1.728"/>
					<path fill="none" stroke="#282D33" stroke-width="4" d="M87.659,103.798c-1.899-0.95-4.215-0.181-5.165,1.72l-1.354,2.703
						c-0.949,1.902-0.18,4.215,1.721,5.168c1.898,0.946,4.212,0.178,5.167-1.722l1.356-2.707
						C90.334,107.061,89.563,104.749,87.659,103.798z"/>
					<path fill="none" stroke="#282D33" stroke-width="4" d="M61.444,90.677c-1.902-0.954-4.217-0.187-5.168,1.718l-1.354,2.703
						c-0.953,1.899-0.186,4.217,1.719,5.166c1.9,0.948,4.217,0.178,5.163-1.722l1.354-2.705
						C64.11,93.939,63.34,91.628,61.444,90.677z"/>
					<path fill="none" stroke="#282D33" stroke-width="4" d="M81.633,94.289c-1.9-0.95-4.215-0.18-5.164,1.719l-3.951,7.899
						c-0.955,1.896-0.184,4.21,1.719,5.161c1.896,0.953,4.212,0.181,5.162-1.721l3.955-7.893
						C84.301,97.555,83.532,95.24,81.633,94.289z"/>
					<path fill="none" stroke="#282D33" stroke-width="4" d="M72.254,91.479c-1.898-0.953-4.211-0.187-5.162,1.717l-3.203,6.395
						c-0.947,1.898-0.18,4.209,1.721,5.16c1.898,0.955,4.211,0.184,5.162-1.719l3.203-6.393
						C74.922,94.739,74.155,92.425,72.254,91.479z"/>
				</g>
			</g>
		</g>
		<g>
			<polygon fill="none" stroke="#282D33" stroke-width="4" points="126.824,96.424 144.43,90.566 134.23,59.929 116.625,65.792 			
				"/>
		</g>
		
			<rect x="26.569" y="67.03" transform="matrix(-0.3158 0.9488 -0.9488 -0.3158 133.572 60.5677)" fill="none" stroke="#282D33" stroke-width="4" width="36.759" height="22.826"/>
		<line fill="none" stroke="#282D33" stroke-width="4" x1="47.261" y1="90.971" x2="43.261" y2="89.637"/>
		<line fill="none" stroke="#282D33" stroke-width="4" x1="129.428" y1="88.514" x2="132.868" y2="87.396"/>
	</g>
</g>
</svg>
