<?xml version="1.0" encoding="utf-8"?>
<!-- Generator: Adobe Illustrator 16.0.0, SVG Export Plug-In . SVG Version: 6.00 Build 0)  -->
<!DOCTYPE svg PUBLIC "-//W3C//DTD SVG 1.1//EN" "http://www.w3.org/Graphics/SVG/1.1/DTD/svg11.dtd">
<svg version="1.1" id="Calque_1" xmlns="http://www.w3.org/2000/svg" xmlns:xlink="http://www.w3.org/1999/xlink" x="0px" y="0px"
	 width="174px" height="174px" viewBox="0 0 174 174" enable-background="new 0 0 174 174" xml:space="preserve">
<g id="Icons">
	<g>
		<g>
			<g>
				<path fill="none" stroke="#2bf5d3" stroke-width="2" d="M88.161,43.074c-19.299,0-34.945,15.648-34.945,34.943
					c0,0.529,0.019,1.055,0.041,1.58l-4.878,8.454L41.96,99.166h8.119v13.795c0,5.205,4.214,9.426,9.42,9.426h14.923v12.547"/>
				<path fill="none" stroke="#2bf5d3" stroke-width="2" d="M112.895,134.934V102.7c6.312-6.324,10.209-15.048,10.209-24.682
					c0-4.823-0.978-9.419-2.746-13.6"/>
			</g>
		</g>
		<g>
			<path fill="none" stroke="#2bf5d3" stroke-width="2" d="M114.264,82.112v-7.546l-6.705-0.559
				c-0.471-2.47-1.379-4.782-2.646-6.853l4.479-5.293l-5.334-5.336l-5.136,4.345c-2.015-1.367-4.28-2.384-6.717-2.97l-0.576-6.915
				h-7.545l-0.56,6.707c-2.469,0.471-4.782,1.378-6.852,2.646l-5.295-4.48l-5.336,5.335l4.348,5.136
				c-1.369,2.012-2.385,4.28-2.971,6.717l-6.915,0.576l-0.001,7.545l6.708,0.56c0.471,2.469,1.377,4.782,2.646,6.852l-4.48,5.294
				l5.334,5.336l5.139-4.346c2.011,1.367,4.277,2.385,6.715,2.97l0.577,6.914l7.545,0.001l0.56-6.707
				c2.468-0.471,4.78-1.377,6.851-2.646l5.293,4.48l5.338-5.335l-4.347-5.138c1.369-2.011,2.386-4.28,2.972-6.716L114.264,82.112z"
				/>
			<circle fill="none" stroke="#2bf5d3" stroke-width="2" cx="87.383" cy="77.866" r="8.368"/>
			<circle fill="none" stroke="#2bf5d3" stroke-width="2" cx="113.625" cy="43.065" r="6.257"/>
			<g>
				<line fill="none" stroke="#2bf5d3" stroke-width="2" x1="113.625" y1="35.46" x2="113.625" y2="29.543"/>
				<line fill="none" stroke="#2bf5d3" stroke-width="2" x1="113.625" y1="56.59" x2="113.625" y2="50.674"/>
			</g>
			<g>
				<line fill="none" stroke="#2bf5d3" stroke-width="2" x1="107.037" y1="39.264" x2="101.913" y2="36.305"/>
				<line fill="none" stroke="#2bf5d3" stroke-width="2" x1="125.336" y1="49.828" x2="120.211" y2="46.869"/>
			</g>
			<g>
				<line fill="none" stroke="#2bf5d3" stroke-width="2" x1="107.037" y1="46.869" x2="101.913" y2="49.828"/>
				<line fill="none" stroke="#2bf5d3" stroke-width="2" x1="125.336" y1="36.305" x2="120.211" y2="39.264"/>
			</g>
		</g>
	</g>
</g>
</svg>
