<?xml version="1.0" encoding="utf-8"?>
<!-- Generator: Adobe Illustrator 16.0.0, SVG Export Plug-In . SVG Version: 6.00 Build 0)  -->
<!DOCTYPE svg PUBLIC "-//W3C//DTD SVG 1.1//EN" "http://www.w3.org/Graphics/SVG/1.1/DTD/svg11.dtd">
<svg version="1.1" id="Calque_1" xmlns="http://www.w3.org/2000/svg" xmlns:xlink="http://www.w3.org/1999/xlink" x="0px" y="0px"
	 width="174px" height="174px" viewBox="0 0 174 174" enable-background="new 0 0 174 174" xml:space="preserve">
<g id="Icons">
	<g>
		<path fill="none" stroke="#2bf5d3" stroke-width="2" d="M72.461,98.568l-4.97,8.613c0,0-3.313,9.106,7.481,9.106
			c12.404,0,58.438,0,58.438,0"/>
		<path fill="none" stroke="#2bf5d3" stroke-width="2" d="M83.148,127.674c0,4.071-3.303,7.378-7.381,7.378
			c-4.07,0-7.377-3.307-7.377-7.378c0-4.074,3.307-7.378,7.377-7.378C79.846,120.296,83.148,123.6,83.148,127.674z"/>
		<path fill="none" stroke="#2bf5d3" stroke-width="2" d="M128.861,127.674c0,4.071-3.303,7.378-7.381,7.378
			c-4.07,0-7.377-3.307-7.377-7.378c0-4.074,3.307-7.378,7.377-7.378C125.559,120.296,128.861,123.6,128.861,127.674z"/>
		<polyline fill="none" stroke="#2bf5d3" stroke-width="2" points="54.783,62.13 133.41,62.13 133.41,98.236 61.225,98.236 
			52.863,46.562 38.896,44.81 		"/>
	</g>
	<line fill="none" stroke="#2bf5d3" stroke-width="2" x1="70.51" y1="69.617" x2="70.51" y2="90.427"/>
	<line fill="none" stroke="#2bf5d3" stroke-width="2" x1="83.105" y1="69.617" x2="83.105" y2="90.427"/>
	<line fill="none" stroke="#2bf5d3" stroke-width="2" x1="95.701" y1="69.617" x2="95.701" y2="90.427"/>
	<line fill="none" stroke="#2bf5d3" stroke-width="2" x1="108.297" y1="69.617" x2="108.297" y2="90.427"/>
	<line fill="none" stroke="#2bf5d3" stroke-width="2" x1="120.893" y1="69.617" x2="120.893" y2="90.427"/>
</g>
</svg>
