<?xml version="1.0" encoding="utf-8"?>
<!-- Generator: Adobe Illustrator 16.0.0, SVG Export Plug-In . SVG Version: 6.00 Build 0)  -->
<!DOCTYPE svg PUBLIC "-//W3C//DTD SVG 1.1//EN" "http://www.w3.org/Graphics/SVG/1.1/DTD/svg11.dtd">
<svg version="1.1" id="Calque_1" xmlns="http://www.w3.org/2000/svg" xmlns:xlink="http://www.w3.org/1999/xlink" x="0px" y="0px"
	 width="174px" height="174px" viewBox="0 0 174 174" enable-background="new 0 0 174 174" xml:space="preserve">
<g id="Icons">
	<g>
		<rect x="41.278" y="51.491" fill="none" stroke="#2bf5d3" stroke-width="2" width="98.5" height="78.911"/>
		<g>
			<path fill="#2bf5d3" d="M129.777,68.991v16.912h-78.5V68.991H129.777 M133.777,64.991h-86.5v24.911h86.5V64.991L133.777,64.991z"
				/>
		</g>
		<g>
			<path fill="#2bf5d3" d="M69.112,98.491v5.911H51.278v-5.911H69.112 M73.112,94.491H47.278v13.911h25.834V94.491L73.112,94.491z"
				/>
		</g>
		<line fill="none" stroke="#2bf5d3" stroke-width="2" x1="47.278" y1="113.824" x2="73.112" y2="113.824"/>
		<line fill="none" stroke="#2bf5d3" stroke-width="2" x1="73.112" y1="121.736" x2="47.278" y2="121.736"/>
		<line fill="none" stroke="#2bf5d3" stroke-width="2" x1="77.612" y1="113.824" x2="103.445" y2="113.824"/>
		<line fill="none" stroke="#2bf5d3" stroke-width="2" x1="70.43" y1="77.324" x2="110.628" y2="77.324"/>
		<line fill="none" stroke="#2bf5d3" stroke-width="2" x1="103.445" y1="121.736" x2="77.612" y2="121.736"/>
		<line fill="none" stroke="#2bf5d3" stroke-width="2" x1="107.945" y1="113.824" x2="133.777" y2="113.824"/>
		<line fill="none" stroke="#2bf5d3" stroke-width="2" x1="133.777" y1="121.736" x2="107.945" y2="121.736"/>
		<g>
			<path fill="#2bf5d3" d="M99.445,98.491v5.911H81.612v-5.911H99.445 M103.445,94.491H77.612v13.911h25.833V94.491L103.445,94.491z
				"/>
		</g>
		<g>
			<path fill="#2bf5d3" d="M129.777,98.491v5.911h-17.832v-5.911H129.777 M133.777,94.491h-25.832v13.911h25.832V94.491
				L133.777,94.491z"/>
		</g>
		<rect x="41.278" y="39.991" fill="none" stroke="#2bf5d3" stroke-width="2" width="98.5" height="11.5"/>
		<line fill="none" stroke="#2bf5d3" stroke-width="2" x1="45.778" y1="45.658" x2="49.517" y2="45.658"/>
		<line fill="none" stroke="#2bf5d3" stroke-width="2" x1="52.251" y1="45.658" x2="55.99" y2="45.658"/>
		<line fill="none" stroke="#2bf5d3" stroke-width="2" x1="58.722" y1="45.658" x2="62.462" y2="45.658"/>
		<line fill="none" stroke="#2bf5d3" stroke-width="2" x1="56.038" y1="59.625" x2="89.038" y2="59.625"/>
		<line fill="none" stroke="#2bf5d3" stroke-width="2" x1="47.278" y1="59.625" x2="51.368" y2="59.625"/>
	</g>
</g>
</svg>
