<?xml version="1.0" encoding="utf-8"?>
<!-- Generator: Adobe Illustrator 16.0.0, SVG Export Plug-In . SVG Version: 6.00 Build 0)  -->
<!DOCTYPE svg PUBLIC "-//W3C//DTD SVG 1.1//EN" "http://www.w3.org/Graphics/SVG/1.1/DTD/svg11.dtd">
<svg version="1.1" id="Calque_1" xmlns="http://www.w3.org/2000/svg" xmlns:xlink="http://www.w3.org/1999/xlink" x="0px" y="0px"
	 width="174px" height="174px" viewBox="0 0 174 174" enable-background="new 0 0 174 174" xml:space="preserve">
<g id="Icons">
	<g>
		<g>
			<g>
				<path fill="none" stroke="#2bf5d3" stroke-width="2" d="M132.857,101.011V45.825c0-1.424-1.16-2.584-2.586-2.584H41.098
					c-1.425,0-2.583,1.16-2.583,2.584v55.186h45.356"/>
				<polyline fill="none" stroke="#2bf5d3" stroke-width="2" points="83.871,93.457 45.893,93.457 45.893,50.737 125.382,50.737 
					125.382,79.457 				"/>
				<path fill="none" stroke="#2bf5d3" stroke-width="2" d="M83.871,100.955h-45.35v7.959c0,1.525,1.562,3.227,3.086,3.227h42.264"
					/>
				<path fill="none" stroke="#2bf5d3" stroke-width="2" d="M75.208,112.202c-0.163,1.979,0.189,6.379-0.237,8.528
					c-0.39,1.969-0.662,2.035-1.707,2.615c-0.589,0.322-1.584,0.772-2.418,1.135l0,0"/>
				<line fill="none" stroke="#2bf5d3" stroke-width="2" x1="68.256" y1="124.32" x2="83.871" y2="124.32"/>
			</g>
		</g>
		<g>
			<path fill="none" stroke="#2bf5d3" stroke-width="2" d="M123.418,137.152H90.551c-1.083,0-1.958-0.875-1.958-1.955V87.288
				c0-1.082,0.875-1.959,1.958-1.959h32.867c1.081,0,1.955,0.877,1.955,1.959v11.069"/>
			<polyline fill="none" stroke="#2bf5d3" stroke-width="2" points="107.438,130.173 94.9,130.173 94.9,91.949 120.064,91.949 			
				"/>
		</g>
		<g>
			<path fill="none" stroke="#2bf5d3" stroke-width="2" d="M132.887,135.921c0,0.681-0.553,1.231-1.232,1.231H114.4
				c-0.682,0-1.233-0.551-1.233-1.231V99.564c0-0.683,0.554-1.233,1.233-1.233h17.254c0.68,0,1.232,0.552,1.232,1.233V135.921
				L132.887,135.921z"/>
			<line fill="none" stroke="#2bf5d3" stroke-width="2" x1="114.596" y1="129.807" x2="132.762" y2="129.807"/>
		</g>
		<g>
			<g>
				<polyline fill="none" stroke="#2bf5d3" stroke-width="2" points="99.77,67.857 99.766,58.163 90.072,58.162 				"/>
				<line fill="none" stroke="#2bf5d3" stroke-width="2" x1="98.09" y1="59.838" x2="88.598" y2="69.332"/>
			</g>
			<g>
				<polyline fill="none" stroke="#2bf5d3" stroke-width="2" points="72.455,75.778 72.459,85.473 82.152,85.474 				"/>
				<line fill="none" stroke="#2bf5d3" stroke-width="2" x1="74.135" y1="83.797" x2="83.629" y2="74.303"/>
			</g>
		</g>
	</g>
</g>
</svg>
