<?xml version="1.0" encoding="utf-8"?>
<!-- Generator: Adobe Illustrator 16.0.0, SVG Export Plug-In . SVG Version: 6.00 Build 0)  -->
<!DOCTYPE svg PUBLIC "-//W3C//DTD SVG 1.1//EN" "http://www.w3.org/Graphics/SVG/1.1/DTD/svg11.dtd">
<svg version="1.1" id="Calque_1" xmlns="http://www.w3.org/2000/svg" xmlns:xlink="http://www.w3.org/1999/xlink" x="0px" y="0px"
	 width="174px" height="174px" viewBox="0 0 174 174" enable-background="new 0 0 174 174" xml:space="preserve">
<g id="Icons">
	<g>
		<path fill="none" stroke="#2bf5d3" stroke-width="2" d="M98.02,50.972c-6.041-6.031-14.059-9.355-22.575-9.35
			c-8.535-0.004-16.564,3.333-22.602,9.396c-6.008,6.04-9.318,14.048-9.314,22.533c0.006,17.6,14.328,31.926,31.93,31.914
			c8.544,0.001,16.576-3.347,22.617-9.406c6.006-6.035,9.309-14.034,9.307-22.521C107.382,65.021,104.059,57.005,98.02,50.972z"/>
		<path fill="none" stroke="#2bf5d3" stroke-width="2" d="M92.509,90.505c-4.562,4.58-10.613,7.095-17.049,7.097
			c-13.271,0.01-24.07-10.783-24.065-24.056c-0.001-6.401,2.493-12.432,7.024-16.979c4.553-4.575,10.604-7.09,17.031-7.093
			c6.424-0.003,12.463,2.497,17.016,7.056c4.552,4.544,7.06,10.591,7.063,17.004C99.532,79.934,97.042,85.959,92.509,90.505z"/>
		<path fill="none" stroke="#2bf5d3" stroke-width="2" d="M60.311,73.543c0.001-4.029,1.567-7.825,4.421-10.69
			c2.867-2.879,6.677-4.464,10.723-4.464"/>
		<g>
			<g>
				<g>
					<path fill="none" stroke="#2bf5d3" stroke-width="2" d="M94.904,92.945"/>
				</g>
				<path fill="none" stroke="#2bf5d3" stroke-width="2" d="M131.521,119.21c2.715,6.549-3.848,13.11-10.397,10.397
					c-8.383-8.383-12.842-12.844-21.226-21.229c3.465-3.465,6.933-6.929,10.397-10.395
					C118.682,106.368,123.141,110.829,131.521,119.21z"/>
				<line fill="none" stroke="#2bf5d3" stroke-width="2" x1="115.012" y1="105.07" x2="106.984" y2="113.098"/>
				<g>
					<line fill="none" stroke="#2bf5d3" stroke-width="2" x1="104.343" y1="102.43" x2="98.68" y2="96.764"/>
				</g>
			</g>
		</g>
	</g>
</g>
</svg>
