<?xml version="1.0" encoding="utf-8"?>
<!-- Generator: Adobe Illustrator 16.0.0, SVG Export Plug-In . SVG Version: 6.00 Build 0)  -->
<!DOCTYPE svg PUBLIC "-//W3C//DTD SVG 1.1//EN" "http://www.w3.org/Graphics/SVG/1.1/DTD/svg11.dtd">
<svg version="1.1" id="Calque_1" xmlns="http://www.w3.org/2000/svg" xmlns:xlink="http://www.w3.org/1999/xlink" x="0px" y="0px"
	 width="174px" height="174px" viewBox="0 0 174 174" enable-background="new 0 0 174 174" xml:space="preserve">
<g id="Icons">
	<g>
		<path fill="none" stroke="#282D33" stroke-width="4" d="M55.129,104.363c-9.006,0-16.334-7.327-16.334-16.334
			c0-9.006,7.328-16.333,16.334-16.333s16.334,7.327,16.334,16.333C71.463,97.036,64.135,104.363,55.129,104.363z"/>
		<circle fill="none" stroke="#282D33" stroke-width="4" cx="55.128" cy="88.03" r="8.667"/>
		<g>
			<path fill="none" stroke="#282D33" stroke-width="4" d="M114.129,74.03c-9.008,0-16.334-7.327-16.334-16.334
				c0-9.006,7.326-16.334,16.334-16.334c9.006,0,16.332,7.328,16.332,16.334C130.461,66.703,123.135,74.03,114.129,74.03z"/>
			<circle fill="none" stroke="#282D33" stroke-width="4" cx="114.128" cy="57.696" r="8.667"/>
			<path fill="none" stroke="#282D33" stroke-width="4" d="M114.129,134.695c-9.008,0-16.334-7.325-16.334-16.334
				c0-9.006,7.326-16.332,16.334-16.332c9.006,0,16.332,7.326,16.332,16.332C130.461,127.37,123.135,134.695,114.129,134.695z"/>
			<circle fill="none" stroke="#282D33" stroke-width="4" cx="114.128" cy="118.362" r="8.667"/>
		</g>
		<polyline fill="none" stroke="#282D33" stroke-width="4" points="93.934,110.827 85.461,106.516 67.746,97.495 		"/>
		<polyline fill="none" stroke="#282D33" stroke-width="4" points="73.092,75.87 85.461,69.571 97.863,63.257 		"/>
	</g>
</g>
</svg>
