<?xml version="1.0" encoding="utf-8"?>
<!-- Generator: Adobe Illustrator 16.0.0, SVG Export Plug-In . SVG Version: 6.00 Build 0)  -->
<!DOCTYPE svg PUBLIC "-//W3C//DTD SVG 1.1//EN" "http://www.w3.org/Graphics/SVG/1.1/DTD/svg11.dtd">
<svg version="1.1" id="Calque_1" xmlns="http://www.w3.org/2000/svg" xmlns:xlink="http://www.w3.org/1999/xlink" x="0px" y="0px"
	 width="174px" height="174px" viewBox="0 0 174 174" enable-background="new 0 0 174 174" xml:space="preserve">
<g id="Icons">
	<g>
		<g>
			<polyline fill="none" stroke="#282D33" stroke-width="4" points="128.018,108.721 129.605,110.311 133.188,123.43 
				120.063,119.854 118.475,118.262 			"/>
			<polyline fill="none" stroke="#282D33" stroke-width="4" points="87.237,67.888 63.653,44.304 54.059,53.898 77.643,77.482 			
				"/>
			<polyline fill="none" stroke="#282D33" stroke-width="4" points="92.643,92.48 118.829,118.668 128.426,109.074 102.236,82.887 
							"/>
			<path fill="none" stroke="#282D33" stroke-width="4" d="M59.724,40.872l-3.665-3.665c-0.451-0.452-1.262-0.369-1.813,0.184
				l-7.095,7.094c-0.556,0.555-0.64,1.367-0.188,1.818l3.666,3.665"/>
		</g>
		<g>
			<polyline fill="none" stroke="#282D33" stroke-width="4" points="60.151,118.68 58.562,120.27 45.848,124.255 49.832,111.539 
				51.422,109.948 			"/>
			<polyline fill="none" stroke="#282D33" stroke-width="4" points="110.029,51.227 50.932,110.324 59.778,119.168 118.875,60.071 
							"/>
			<line fill="none" stroke="#282D33" stroke-width="4" x1="114.143" y1="55.959" x2="55.893" y2="114.209"/>
			<path fill="none" stroke="#282D33" stroke-width="4" d="M129.23,49.968l3.664-3.663c0.453-0.455,0.369-1.263-0.183-1.815
				l-7.096-7.095c-0.556-0.555-1.366-0.64-1.817-0.188l-3.665,3.665"/>
			
				<rect x="112.518" y="45.131" transform="matrix(0.7071 -0.7072 0.7072 0.7071 -2.7994 98.4884)" fill="none" stroke="#282D33" stroke-width="4" width="9.914" height="14.984"/>
		</g>
	</g>
</g>
</svg>
