<?xml version="1.0" encoding="utf-8"?>
<!-- Generator: Adobe Illustrator 16.0.0, SVG Export Plug-In . SVG Version: 6.00 Build 0)  -->
<!DOCTYPE svg PUBLIC "-//W3C//DTD SVG 1.1//EN" "http://www.w3.org/Graphics/SVG/1.1/DTD/svg11.dtd">
<svg version="1.1" id="Calque_1" xmlns="http://www.w3.org/2000/svg" xmlns:xlink="http://www.w3.org/1999/xlink" x="0px" y="0px"
	 width="174px" height="174px" viewBox="0 0 174 174" enable-background="new 0 0 174 174" xml:space="preserve">
<g id="Icons">
	<g>
		<g>
			<rect x="37.965" y="40.991" fill="none" stroke="#2bf5d3" stroke-width="2" width="98.5" height="90.411"/>
			<rect x="37.965" y="40.991" fill="none" stroke="#2bf5d3" stroke-width="2" width="98.5" height="11.5"/>
			<line fill="none" stroke="#2bf5d3" stroke-width="2" x1="42.465" y1="46.658" x2="46.203" y2="46.658"/>
			<line fill="none" stroke="#2bf5d3" stroke-width="2" x1="48.936" y1="46.658" x2="52.676" y2="46.658"/>
			<line fill="none" stroke="#2bf5d3" stroke-width="2" x1="55.408" y1="46.658" x2="59.148" y2="46.658"/>
		</g>
		<g>
			<g>
				<g>
					<path fill="#2bf5d3" d="M70.334,79.953l9.139,0.001v49.534h-9.139V79.953 M66.334,75.953v57.535h17.139V75.954L66.334,75.953
						L66.334,75.953z"/>
				</g>
			</g>
			<line fill="none" stroke="#2bf5d3" stroke-width="2" x1="66.334" y1="77.772" x2="83.473" y2="77.772"/>
			<polyline fill="none" stroke="#2bf5d3" stroke-width="2" points="91.596,130.232 91.596,61.733 108.096,61.733 108.096,130.232 
							"/>
			<line fill="none" stroke="#2bf5d3" stroke-width="2" x1="108.096" y1="68.734" x2="100.162" y2="68.734"/>
			<line fill="none" stroke="#2bf5d3" stroke-width="2" x1="108.096" y1="75.734" x2="103.824" y2="75.734"/>
			<line fill="none" stroke="#2bf5d3" stroke-width="2" x1="108.096" y1="82.734" x2="100.162" y2="82.734"/>
			<line fill="none" stroke="#2bf5d3" stroke-width="2" x1="108.096" y1="89.734" x2="103.824" y2="89.734"/>
			<line fill="none" stroke="#2bf5d3" stroke-width="2" x1="108.096" y1="96.734" x2="100.162" y2="96.734"/>
			<line fill="none" stroke="#2bf5d3" stroke-width="2" x1="108.096" y1="103.734" x2="103.824" y2="103.734"/>
			<line fill="none" stroke="#2bf5d3" stroke-width="2" x1="108.096" y1="110.734" x2="100.162" y2="110.734"/>
			<line fill="none" stroke="#2bf5d3" stroke-width="2" x1="108.096" y1="117.734" x2="103.824" y2="117.734"/>
			<line fill="none" stroke="#2bf5d3" stroke-width="2" x1="108.096" y1="124.734" x2="100.162" y2="124.734"/>
			<polyline fill="none" stroke="#2bf5d3" stroke-width="2" points="68.332,77.772 68.332,75.472 74.902,63.39 81.477,75.472 
				81.477,77.772 			"/>
		</g>
	</g>
</g>
</svg>
