<?xml version="1.0" encoding="utf-8"?>
<!-- Generator: Adobe Illustrator 16.0.0, SVG Export Plug-In . SVG Version: 6.00 Build 0)  -->
<!DOCTYPE svg PUBLIC "-//W3C//DTD SVG 1.1//EN" "http://www.w3.org/Graphics/SVG/1.1/DTD/svg11.dtd">
<svg version="1.1" id="Calque_1" xmlns="http://www.w3.org/2000/svg" xmlns:xlink="http://www.w3.org/1999/xlink" x="0px" y="0px"
	 width="174px" height="174px" viewBox="0 0 174 174" enable-background="new 0 0 174 174" xml:space="preserve">
<g id="Calque_2">
	<path fill="none" stroke="#2bf5d3" stroke-width="2" stroke-miterlimit="10" d="M97.25,52L118,112.75l9.75-30.375
		c0,0,4.5-10.625-6.75-26.875c0,0-8.5-11.25,1.75-18.5c0,0,11.75-7.25,17.5,16.5c0,0,1,9.5-3.5,23s-24.25,67.25-24.25,67.25
		l-22.25-59l-21,59L35.658,52.714L27.521,51.5c0,0-1.021-2.75,0.479-4.5c0,0,16.5,1,32.75-0.5c0,0,2.75,1.25,0.75,4.5l-8,1l21,61.5
		l13-37.25l-9-24l-6.25-0.75c0,0-4.25-1.5-0.5-5.25c0,0,18.54,1.215,32.25,0.25c0,0,3.5,1.25,1,5L97.25,52z"/>
</g>
</svg>
